<svg width="53" height="53" viewBox="0 0 53 53" fill="none" xmlns="http://www.w3.org/2000/svg">
<circle cx="26.5" cy="26.5" r="26.5" fill="#E3E2DE"/>
<rect x="35.4785" y="14.0165" width="25.843" height="17.5207" rx="8.76033" transform="rotate(90 35.4785 14.0165)" fill="white"/>
<path fill-rule="evenodd" clip-rule="evenodd" d="M29.6569 29.9134C29.8279 30.0845 29.8279 30.3618 29.6569 30.5329L27.0288 33.161C26.8577 33.332 26.5804 33.332 26.4093 33.161L23.7812 30.5329C23.6102 30.3618 23.6102 30.0845 23.7812 29.9134C23.9523 29.7424 24.2296 29.7424 24.4007 29.9134L26.281 31.7938L26.281 26.719C26.281 26.4771 26.4771 26.281 26.719 26.281C26.961 26.281 27.1571 26.4771 27.1571 26.719L27.1571 31.7938L29.0374 29.9134C29.2085 29.7424 29.4858 29.7424 29.6569 29.9134Z" fill="#090E18"/>
<rect x="27.1562" y="20.1488" width="8.32231" height="0.876033" rx="0.438016" transform="rotate(90 27.1562 20.1488)" fill="#090E18"/>
</svg>
