<svg width="31" height="31" viewBox="0 0 31 31" fill="none" xmlns="http://www.w3.org/2000/svg">
<path fill-rule="evenodd" clip-rule="evenodd" d="M7.47657 18.1087C7.53312 18.1277 7.59019 18.1412 7.6472 18.1495C7.70937 18.2956 7.78971 18.4846 7.88343 18.7057C8.11215 19.2451 8.42033 19.9747 8.73844 20.7358C9.38717 22.288 10.0415 23.888 10.1861 24.346C10.365 24.9122 10.5541 25.2971 10.7605 25.5599C10.8673 25.6957 10.9907 25.8144 11.1352 25.9042C11.2079 25.9495 11.2848 25.9866 11.3649 26.0142C11.3685 26.0154 11.372 26.0166 11.3755 26.0178C11.7889 26.1739 12.1657 26.1088 12.4017 26.0293C12.5279 25.9868 12.6301 25.9354 12.7025 25.8938C12.7394 25.8726 12.7706 25.8528 12.7955 25.8361L12.8013 25.8321L16.4519 23.5556L20.6685 26.7884C20.7308 26.8361 20.7986 26.8761 20.8705 26.9075C21.3771 27.1285 21.8676 27.2056 22.3291 27.1426C22.7897 27.0797 23.1555 26.8861 23.4277 26.6683C23.6944 26.455 23.8751 26.2161 23.9876 26.0386C24.0451 25.9479 24.0883 25.8677 24.1187 25.8063C24.134 25.7755 24.1463 25.7489 24.1558 25.7275L24.168 25.6993L24.1726 25.6883L24.1745 25.6836L24.1754 25.6814L24.1762 25.6794C24.1983 25.624 24.2153 25.5667 24.2269 25.5081L28.0764 6.1002C28.0887 6.03813 28.0949 5.97501 28.0949 5.91173C28.0949 5.34338 27.8808 4.80294 27.3772 4.475C26.9469 4.19471 26.4674 4.18264 26.1644 4.20564C25.8376 4.23045 25.5357 4.31114 25.3332 4.37561C25.2277 4.40917 25.1394 4.44154 25.0756 4.46624C25.0436 4.47865 25.0173 4.4893 24.9978 4.49742L24.9831 4.50361L3.39454 12.9725L3.39175 12.9735C3.37799 12.9785 3.36032 12.9851 3.33933 12.9933C3.29753 13.0095 3.24152 13.0325 3.17609 13.0621C3.0485 13.1199 2.8695 13.2103 2.68581 13.3361C2.39236 13.5371 1.71748 14.0874 1.83112 14.9959C1.92178 15.7206 2.41827 16.1657 2.72077 16.3797C2.88687 16.4972 3.04466 16.5813 3.15958 16.636C3.2129 16.6614 3.32359 16.7063 3.37161 16.7259L3.38373 16.7308L7.47657 18.1087ZM25.7386 6.28765L25.7356 6.28896C25.7249 6.29364 25.714 6.29812 25.7031 6.3024L4.08836 14.7815C4.07707 14.786 4.0657 14.7902 4.05426 14.7942L4.04223 14.7988C4.0284 14.8041 4.00512 14.8136 3.9759 14.8268C3.95933 14.8343 3.94204 14.8425 3.92441 14.8513C3.94863 14.865 3.97181 14.8768 3.99241 14.8866C4.01218 14.896 4.02727 14.9025 4.03553 14.9059L8.09476 16.2724C8.16905 16.2974 8.23832 16.3306 8.30189 16.3705L21.7052 8.52432L21.7177 8.51691C21.7276 8.51114 21.7403 8.50372 21.7557 8.49504C21.7862 8.47779 21.8281 8.45483 21.878 8.42946C21.971 8.38211 22.1198 8.31183 22.2875 8.26001C22.4042 8.22393 22.7484 8.1223 23.1206 8.24165C23.3502 8.31532 23.588 8.47369 23.7427 8.74198C23.8195 8.87526 23.8605 9.00915 23.8803 9.13172C23.933 9.3248 23.9246 9.51546 23.8834 9.68006C23.7946 10.0346 23.5455 10.3112 23.3188 10.5228C23.1246 10.7041 20.6118 13.1271 18.1329 15.519C16.8967 16.7117 15.6731 17.8928 14.7586 18.7756L14.1579 19.3555L21.7425 25.1704C21.9164 25.2326 22.0192 25.2294 22.0668 25.2229C22.1235 25.2152 22.1699 25.1934 22.2173 25.1555C22.2703 25.113 22.3166 25.0558 22.3513 25.0012L22.3527 24.9989L26.0862 6.17548C26.0308 6.1888 25.9748 6.20465 25.9208 6.22184C25.8596 6.24131 25.8092 6.25985 25.7758 6.27281C25.7592 6.27923 25.7473 6.28409 25.7408 6.28678L25.7386 6.28765ZM14.8095 22.2964L13.2963 21.1363L12.9297 23.4687L14.8095 22.2964ZM11.9082 18.8343L13.4129 17.3816C14.3276 16.4987 15.5513 15.3176 16.7876 14.1247L18.0437 12.9128L9.62202 17.8428L9.66721 17.9494C9.89674 18.4907 10.2063 19.2235 10.5261 19.9887C10.7652 20.5608 11.0153 21.1632 11.243 21.721L11.6086 19.3955C11.6439 19.1712 11.7534 18.9771 11.9082 18.8343Z" fill="#5A5A5A"/>
</svg>
