<svg width="72" height="14" viewBox="0 0 72 14" fill="none" xmlns="http://www.w3.org/2000/svg">
<path d="M3 12.6711L6.30778 4.83557C7.54274 1.91015 11.6884 1.91015 12.9233 4.83557V4.83557C14.1583 7.76099 18.3039 7.76099 19.5389 4.83557V4.83557C20.7738 1.91015 24.9195 1.91015 26.1544 4.83557V4.83557C27.3894 7.76099 31.535 7.76099 32.77 4.83557V4.83557C34.005 1.91015 38.1506 1.91015 39.3856 4.83557V4.83557C40.6205 7.76099 44.7661 7.76099 46.0011 4.83557V4.83557C47.2361 1.91015 51.3817 1.91015 52.6167 4.83557V4.83557C53.8516 7.76099 57.9973 7.76099 59.2322 4.83557V4.83557C60.4672 1.91015 64.6128 1.91015 65.8478 4.83557L69.1555 12.6711" stroke="#849E87" stroke-width="5.22371"/>
</svg>
