<svg width="32" height="31" viewBox="0 0 32 31" fill="none" xmlns="http://www.w3.org/2000/svg">
<path d="M12.3931 9.26106C12.6295 9.26739 12.8915 9.28017 13.1407 9.8335C13.306 10.2019 13.5845 10.88 13.8113 11.4324C13.9878 11.8622 14.1331 12.216 14.1694 12.2884C14.2525 12.4537 14.3036 12.6445 14.195 12.867C14.1822 12.8933 14.1701 12.9184 14.1584 12.9425C14.0713 13.1234 14.0093 13.2521 13.8628 13.4203C13.8025 13.4895 13.7398 13.5653 13.6772 13.6409C13.5673 13.7738 13.458 13.9058 13.3643 13.9991C13.1982 14.1643 13.0256 14.3426 13.2173 14.6732C13.4091 15.0039 14.08 16.0914 15.0704 16.9691C16.1352 17.917 17.061 18.3165 17.5291 18.5184C17.6199 18.5576 17.6936 18.5894 17.7476 18.6163C18.0799 18.7816 18.2779 18.7562 18.4696 18.5336C18.6614 18.3109 19.3003 17.5668 19.524 17.2362C19.7412 16.9055 19.9648 16.9564 20.2716 17.0708C20.5782 17.1853 22.214 17.9866 22.5462 18.1519C22.6119 18.1846 22.6733 18.2141 22.7302 18.2414C22.9614 18.3523 23.1185 18.4276 23.1852 18.5399C23.2682 18.6798 23.2682 19.3413 22.9935 20.1171C22.7124 20.893 21.3577 21.6371 20.7443 21.6943C20.6863 21.6998 20.6285 21.7068 20.569 21.714C20.0068 21.782 19.2932 21.8683 16.7508 20.8676C13.618 19.6356 11.55 16.5791 11.1319 15.9611C11.0989 15.9123 11.0762 15.8787 11.064 15.8624L11.057 15.853C10.8667 15.5984 9.70303 14.0413 9.70303 12.4347C9.70303 10.8976 10.4602 10.0973 10.8056 9.73228C10.8275 9.70915 10.8477 9.68777 10.866 9.66805C11.1727 9.33739 11.5306 9.25473 11.7542 9.25473C11.9779 9.25473 12.2015 9.25473 12.3931 9.26106Z" fill="#5A5A5A"/>
<path fill-rule="evenodd" clip-rule="evenodd" d="M3.73668 27.5531C3.631 27.9367 3.98039 28.2908 4.36536 28.1902L10.3165 26.6358C12.1951 27.6533 14.31 28.1939 16.4634 28.1939H16.4698C23.5558 28.1939 29.3321 22.4511 29.3321 15.3918C29.3321 11.9703 27.9966 8.75226 25.5686 6.33551C23.1406 3.91887 19.9137 2.58334 16.4697 2.58334C9.38371 2.58334 3.60742 8.32615 3.60742 15.3855C3.60662 17.6312 4.19939 19.8377 5.32622 21.7833L3.73668 27.5531ZM7.19413 22.2979C7.33211 21.7971 7.26318 21.2618 7.00283 20.8123C6.0468 19.1616 5.54424 17.2896 5.54492 15.3855C5.54492 9.40538 10.4446 4.52084 16.4697 4.52084C19.4016 4.52084 22.137 5.65361 24.2018 7.70874C26.2642 9.7616 27.3946 12.4854 27.3946 15.3918C27.3946 21.3718 22.495 26.2564 16.4698 26.2564H16.4634C14.6337 26.2564 12.8358 25.7969 11.2393 24.9322C10.8072 24.6981 10.3023 24.637 9.82687 24.7612L6.25876 25.6932L7.19413 22.2979Z" fill="#5A5A5A"/>
</svg>
